<mxfile host="Electron" modified="2023-04-07T19:45:16.864Z" agent="Mozilla/5.0 (Windows NT 10.0; Win64; x64) AppleWebKit/537.36 (KHTML, like Gecko) draw.io/21.1.2 Chrome/106.0.5249.199 Electron/21.4.3 Safari/537.36" etag="4aMd3TZRzgirVT-w7M2W" version="21.1.2" type="device">
  <diagram name="Страница 1" id="oJNJEGorqCArEJLEWWgS">
    <mxGraphModel dx="1050" dy="629" grid="1" gridSize="10" guides="1" tooltips="1" connect="1" arrows="1" fold="1" page="1" pageScale="1" pageWidth="827" pageHeight="1169" math="0" shadow="0">
      <root>
        <mxCell id="0" />
        <mxCell id="1" parent="0" />
        <mxCell id="-yGcGs1fZwmM3xtbKyeu-3" value="" style="edgeStyle=orthogonalEdgeStyle;rounded=0;orthogonalLoop=1;jettySize=auto;html=1;" edge="1" parent="1" source="-yGcGs1fZwmM3xtbKyeu-1" target="-yGcGs1fZwmM3xtbKyeu-2">
          <mxGeometry relative="1" as="geometry" />
        </mxCell>
        <mxCell id="-yGcGs1fZwmM3xtbKyeu-1" value="&lt;font style=&quot;font-size: 18px;&quot;&gt;Start&lt;/font&gt;" style="ellipse;whiteSpace=wrap;html=1;" vertex="1" parent="1">
          <mxGeometry x="320" width="120" height="60" as="geometry" />
        </mxCell>
        <mxCell id="-yGcGs1fZwmM3xtbKyeu-5" value="" style="edgeStyle=orthogonalEdgeStyle;rounded=0;orthogonalLoop=1;jettySize=auto;html=1;" edge="1" parent="1" source="-yGcGs1fZwmM3xtbKyeu-2" target="-yGcGs1fZwmM3xtbKyeu-4">
          <mxGeometry relative="1" as="geometry" />
        </mxCell>
        <mxCell id="-yGcGs1fZwmM3xtbKyeu-2" value="&lt;font style=&quot;font-size: 18px;&quot;&gt;array = [hello, 2, world, :-)]&lt;br&gt;shortStrings = array.Length&lt;br&gt;i = 0&lt;br&gt;&lt;/font&gt;" style="rounded=0;whiteSpace=wrap;html=1;" vertex="1" parent="1">
          <mxGeometry x="245" y="110" width="270" height="80" as="geometry" />
        </mxCell>
        <mxCell id="-yGcGs1fZwmM3xtbKyeu-7" value="Yes" style="edgeStyle=orthogonalEdgeStyle;rounded=0;orthogonalLoop=1;jettySize=auto;html=1;fontSize=18;" edge="1" parent="1" source="-yGcGs1fZwmM3xtbKyeu-4" target="-yGcGs1fZwmM3xtbKyeu-6">
          <mxGeometry relative="1" as="geometry" />
        </mxCell>
        <mxCell id="-yGcGs1fZwmM3xtbKyeu-15" value="No" style="edgeStyle=orthogonalEdgeStyle;rounded=0;orthogonalLoop=1;jettySize=auto;html=1;fontSize=18;" edge="1" parent="1" source="-yGcGs1fZwmM3xtbKyeu-4" target="-yGcGs1fZwmM3xtbKyeu-14">
          <mxGeometry relative="1" as="geometry" />
        </mxCell>
        <mxCell id="-yGcGs1fZwmM3xtbKyeu-4" value="&lt;font style=&quot;font-size: 18px;&quot;&gt;i &amp;lt; array.Length&lt;br&gt;&lt;/font&gt;" style="rhombus;whiteSpace=wrap;html=1;" vertex="1" parent="1">
          <mxGeometry x="250" y="240" width="260" height="80" as="geometry" />
        </mxCell>
        <mxCell id="-yGcGs1fZwmM3xtbKyeu-10" value="Yes" style="edgeStyle=orthogonalEdgeStyle;rounded=0;orthogonalLoop=1;jettySize=auto;html=1;fontSize=18;" edge="1" parent="1" source="-yGcGs1fZwmM3xtbKyeu-6" target="-yGcGs1fZwmM3xtbKyeu-9">
          <mxGeometry relative="1" as="geometry" />
        </mxCell>
        <mxCell id="-yGcGs1fZwmM3xtbKyeu-6" value="&lt;font style=&quot;font-size: 18px;&quot;&gt;array[i].Length &amp;lt;= 3&lt;/font&gt;" style="rhombus;whiteSpace=wrap;html=1;" vertex="1" parent="1">
          <mxGeometry x="250" y="380" width="260" height="90" as="geometry" />
        </mxCell>
        <mxCell id="-yGcGs1fZwmM3xtbKyeu-12" value="" style="edgeStyle=orthogonalEdgeStyle;rounded=0;orthogonalLoop=1;jettySize=auto;html=1;" edge="1" parent="1" source="-yGcGs1fZwmM3xtbKyeu-9" target="-yGcGs1fZwmM3xtbKyeu-11">
          <mxGeometry relative="1" as="geometry" />
        </mxCell>
        <mxCell id="-yGcGs1fZwmM3xtbKyeu-9" value="&lt;font style=&quot;font-size: 18px;&quot;&gt;shortSrtings[i] = array[i]&lt;/font&gt;" style="rounded=0;whiteSpace=wrap;html=1;" vertex="1" parent="1">
          <mxGeometry x="275" y="540" width="210" height="60" as="geometry" />
        </mxCell>
        <mxCell id="-yGcGs1fZwmM3xtbKyeu-13" value="" style="edgeStyle=orthogonalEdgeStyle;rounded=0;orthogonalLoop=1;jettySize=auto;html=1;" edge="1" parent="1" source="-yGcGs1fZwmM3xtbKyeu-11" target="-yGcGs1fZwmM3xtbKyeu-4">
          <mxGeometry relative="1" as="geometry" />
        </mxCell>
        <mxCell id="-yGcGs1fZwmM3xtbKyeu-11" value="&lt;font style=&quot;font-size: 18px;&quot;&gt;i += 1&lt;/font&gt;" style="rounded=0;whiteSpace=wrap;html=1;" vertex="1" parent="1">
          <mxGeometry x="60" y="250" width="120" height="60" as="geometry" />
        </mxCell>
        <mxCell id="-yGcGs1fZwmM3xtbKyeu-17" value="" style="edgeStyle=orthogonalEdgeStyle;rounded=0;orthogonalLoop=1;jettySize=auto;html=1;" edge="1" parent="1" source="-yGcGs1fZwmM3xtbKyeu-14" target="-yGcGs1fZwmM3xtbKyeu-16">
          <mxGeometry relative="1" as="geometry" />
        </mxCell>
        <mxCell id="-yGcGs1fZwmM3xtbKyeu-14" value="&lt;font style=&quot;font-size: 18px;&quot;&gt;print shortStrings[i]&lt;/font&gt;" style="shape=parallelogram;perimeter=parallelogramPerimeter;whiteSpace=wrap;html=1;fixedSize=1;" vertex="1" parent="1">
          <mxGeometry x="580" y="250" width="200" height="60" as="geometry" />
        </mxCell>
        <mxCell id="-yGcGs1fZwmM3xtbKyeu-16" value="&lt;font style=&quot;font-size: 18px;&quot;&gt;End&lt;/font&gt;" style="ellipse;whiteSpace=wrap;html=1;" vertex="1" parent="1">
          <mxGeometry x="620" y="380" width="120" height="70" as="geometry" />
        </mxCell>
      </root>
    </mxGraphModel>
  </diagram>
</mxfile>
